<svg id="visual" viewBox="0 0 900 600" width="900" height="600" xmlns="http://www.w3.org/2000/svg" xmlns:xlink="http://www.w3.org/1999/xlink" version="1.1"><g transform="translate(447.43537054205206 299.0397458636222)"><path d="M139.9 -213.5C185.4 -188.5 229.1 -156.6 247.1 -113.8C265.1 -71.1 257.3 -17.6 240.1 27.7C223 73 196.5 110.2 166.2 142.6C135.9 175 101.8 202.6 59.6 225.3C17.4 247.9 -32.9 265.5 -80 258.2C-127.2 250.9 -171.3 218.8 -201.7 178C-232 137.1 -248.6 87.6 -251.7 38.7C-254.8 -10.2 -244.3 -58.5 -224.4 -102.7C-204.5 -146.9 -175.2 -187 -136.3 -215.1C-97.3 -243.1 -48.7 -259 -0.7 -257.9C47.2 -256.8 94.4 -238.6 139.9 -213.5" fill="#4279DF"></path></g></svg>