<?xml version="1.0" ?><!DOCTYPE svg  PUBLIC '-//W3C//DTD SVG 1.1//EN'  'http://www.w3.org/Graphics/SVG/1.1/DTD/svg11.dtd'><svg enable-background="new 0 0 64 64" id="Layer_1"  version="1.1" viewBox="0 0 64 64" xml:space="preserve" fill="#cecece" xmlns="http://www.w3.org/2000/svg" xmlns:xlink="http://www.w3.org/1999/xlink"><g><path d="M31.669,38.294c-2.715,0-5.144-2-5.906-4.863c-0.719-2.699,0.269-5.197,2.576-6.52c1.151-0.66,2.561-1.023,3.967-1.023   c1.38,0,2.653,0.345,3.683,0.997c2.227,1.41,3.267,4.279,2.474,6.821c-0.815,2.609-3.538,4.495-6.621,4.586L31.669,38.294z    M32.306,27.888c-1.063,0-2.119,0.27-2.973,0.758c-2.233,1.281-1.818,3.592-1.638,4.271c0.434,1.627,1.862,3.378,3.974,3.378   l0.113-0.002c1.836-0.054,4.111-1.072,4.771-3.182c0.528-1.694-0.159-3.602-1.635-4.536C34.209,28.125,33.306,27.888,32.306,27.888   z"/></g><g><path d="M27.308,19.347c-0.553,0-1-0.447-1-1v-3.261c-0.002-1.238,0.262-2.574,2.232-3.099c1.046-0.276,2.489-0.237,3.763-0.201   c0.427,0.012,0.83,0.03,1.167,0.02c1.354-0.021,2.454,0.341,3.162,1.058c0.754,0.764,0.849,1.679,0.838,2.156   c-0.009,0.359-0.009,0.745-0.009,1.147c0,0.679,0,1.402-0.037,2.124c-0.028,0.551-0.517,0.966-1.051,0.947   c-0.551-0.028-0.976-0.499-0.947-1.051c0.036-0.687,0.035-1.375,0.035-2.021c0-0.419,0-0.82,0.009-1.193   c0.004-0.16-0.025-0.466-0.262-0.705c-0.307-0.312-0.921-0.479-1.717-0.463c-0.364,0.002-0.789-0.008-1.245-0.021   c-1.081-0.03-2.428-0.068-3.192,0.136c-0.645,0.171-0.748,0.264-0.746,1.161v3.265C28.308,18.899,27.86,19.347,27.308,19.347z"/></g><g><path d="M46.893,30.081c-0.34,0-0.67-0.173-0.858-0.484c-0.284-0.474-0.131-1.088,0.342-1.373c0.594-0.356,1.168-0.744,1.708-1.108   c0.342-0.23,0.671-0.452,0.981-0.651c0.136-0.087,0.373-0.281,0.439-0.61c0.086-0.43-0.113-1.012-0.576-1.684   c-0.206-0.299-0.435-0.659-0.679-1.043c-0.579-0.913-1.3-2.051-1.897-2.572c-0.499-0.437-0.633-0.475-1.379,0.03l-2.707,1.824   c-0.456,0.311-1.081,0.188-1.388-0.271c-0.309-0.458-0.188-1.079,0.271-1.388l2.703-1.822c1.024-0.695,2.279-1.223,3.816,0.12   c0.814,0.712,1.588,1.932,2.271,3.007c0.229,0.36,0.442,0.698,0.636,0.979c0.789,1.145,1.089,2.226,0.89,3.213   c-0.212,1.053-0.918,1.642-1.32,1.899c-0.298,0.191-0.613,0.404-0.943,0.627c-0.566,0.382-1.171,0.789-1.794,1.164   C47.246,30.035,47.068,30.081,46.893,30.081z"/></g><g><path d="M16.84,30.284c-0.176,0-0.354-0.046-0.515-0.144c-0.618-0.372-1.218-0.775-1.779-1.154   c-0.335-0.226-0.655-0.441-0.958-0.636c-0.403-0.258-1.108-0.848-1.32-1.9c-0.198-0.987,0.102-2.068,0.891-3.213   c0.193-0.28,0.407-0.618,0.635-0.979c0.683-1.076,1.455-2.296,2.271-3.008c1.536-1.343,2.792-0.813,3.817-0.119l2.704,1.822   c0.457,0.309,0.578,0.931,0.27,1.389c-0.309,0.457-0.93,0.577-1.389,0.27l-2.707-1.824c-0.74-0.504-0.877-0.471-1.379-0.031   c-0.598,0.521-1.318,1.659-1.897,2.573c-0.243,0.384-0.472,0.743-0.678,1.042c-0.463,0.672-0.663,1.255-0.576,1.684   c0.066,0.33,0.303,0.524,0.438,0.611c0.314,0.201,0.648,0.427,0.996,0.661c0.535,0.36,1.105,0.745,1.693,1.1   c0.474,0.285,0.626,0.899,0.341,1.372C17.51,30.111,17.179,30.284,16.84,30.284z"/></g><g><path d="M46.022,45.647c-0.709,0-1.341-0.331-1.903-0.712l-2.703-1.821c-0.458-0.309-0.579-0.93-0.271-1.388   c0.308-0.459,0.929-0.581,1.388-0.271l2.707,1.823c0.742,0.502,0.878,0.471,1.38,0.031c0.598-0.521,1.318-1.659,1.897-2.573   c0.243-0.384,0.472-0.743,0.678-1.042c0.463-0.672,0.663-1.255,0.576-1.684c-0.066-0.33-0.303-0.524-0.438-0.611   c-0.313-0.2-0.645-0.424-0.991-0.657c-0.536-0.361-1.108-0.747-1.698-1.102c-0.473-0.285-0.626-0.899-0.342-1.373   c0.285-0.473,0.899-0.626,1.373-0.342c0.619,0.373,1.221,0.777,1.785,1.158c0.332,0.224,0.651,0.438,0.952,0.632   c0.403,0.258,1.108,0.848,1.32,1.9c0.198,0.987-0.102,2.068-0.891,3.213c-0.193,0.28-0.407,0.618-0.635,0.979   c-0.683,1.076-1.455,2.296-2.271,3.008C47.243,45.423,46.606,45.647,46.022,45.647z"/></g><g><path d="M18.246,45.651c-0.584,0-1.221-0.225-1.915-0.831c-0.814-0.712-1.588-1.932-2.271-3.007   c-0.229-0.36-0.442-0.698-0.636-0.979c-0.789-1.145-1.089-2.226-0.89-3.213c0.212-1.053,0.918-1.642,1.32-1.899   c0.298-0.191,0.613-0.404,0.943-0.627c0.566-0.382,1.171-0.789,1.794-1.164c0.472-0.285,1.087-0.131,1.373,0.342   c0.284,0.474,0.131,1.088-0.342,1.373c-0.594,0.356-1.168,0.744-1.708,1.108c-0.342,0.23-0.671,0.452-0.981,0.651   c-0.136,0.087-0.373,0.281-0.439,0.61c-0.086,0.43,0.113,1.012,0.576,1.684c0.206,0.299,0.435,0.659,0.679,1.043   c0.579,0.913,1.3,2.051,1.897,2.572c0.5,0.438,0.633,0.474,1.379-0.03l2.707-1.824c0.456-0.311,1.081-0.188,1.388,0.271   c0.309,0.458,0.188,1.079-0.271,1.388l-2.703,1.822C19.586,45.321,18.954,45.651,18.246,45.651z"/></g><g><path d="M31.182,52.239c-0.863,0-1.715-0.046-2.397-0.227c-1.972-0.524-2.234-1.861-2.231-3.1v-3.26c0-0.553,0.447-1,1-1   s1,0.447,1,1v3.265c-0.002,0.897,0.101,0.99,0.745,1.161c0.765,0.204,2.108,0.166,3.192,0.136c0.455-0.012,0.88-0.02,1.245-0.021   c0.815,0.013,1.41-0.151,1.718-0.463c0.235-0.238,0.265-0.545,0.261-0.706c-0.008-0.369-0.008-0.766-0.008-1.179   c0-0.65,0.001-1.343-0.035-2.034c-0.028-0.552,0.396-1.022,0.947-1.051c0.546-0.031,1.022,0.396,1.051,0.947   c0.037,0.727,0.037,1.455,0.037,2.139c0,0.396,0,0.778,0.008,1.133c0.011,0.478-0.084,1.393-0.838,2.156   c-0.707,0.716-1.802,1.056-3.162,1.058c-0.339-0.006-0.741,0.008-1.167,0.02C32.104,52.227,31.642,52.239,31.182,52.239z"/></g><g><path d="M41.708,22.58c-0.39,0-0.76-0.229-0.921-0.61c-0.457-1.079-3.18-2.646-4.432-2.732c-0.551-0.038-0.967-0.516-0.929-1.067   c0.039-0.551,0.519-0.957,1.067-0.929c1.773,0.123,5.302,1.979,6.135,3.949c0.215,0.509-0.022,1.096-0.531,1.311   C41.971,22.555,41.838,22.58,41.708,22.58z"/></g><g><path d="M22.025,22.688c-0.131,0-0.263-0.025-0.39-0.079c-0.509-0.215-0.746-0.802-0.531-1.311c0.833-1.97,4.36-3.826,6.134-3.949   c0.546-0.023,1.028,0.378,1.067,0.929c0.038,0.552-0.378,1.029-0.929,1.067c-1.252,0.086-3.974,1.653-4.431,2.732   C22.785,22.459,22.415,22.688,22.025,22.688z"/></g><g><path d="M36.691,46.653c-0.521,0-0.96-0.403-0.997-0.931c-0.038-0.552,0.378-1.029,0.929-1.067   c1.252-0.086,3.974-1.653,4.431-2.732c0.215-0.51,0.805-0.746,1.311-0.531c0.509,0.215,0.746,0.802,0.531,1.311   c-0.833,1.97-4.36,3.826-6.134,3.949C36.738,46.652,36.715,46.653,36.691,46.653z"/></g><g><path d="M27.576,46.547c-0.023,0-0.047-0.001-0.07-0.002c-1.773-0.123-5.302-1.979-6.135-3.949   c-0.215-0.509,0.022-1.096,0.531-1.311c0.505-0.213,1.096,0.021,1.311,0.531c0.457,1.079,3.18,2.646,4.432,2.732   c0.551,0.038,0.967,0.516,0.929,1.067C28.536,46.144,28.097,46.547,27.576,46.547z"/></g><g><path d="M17.109,35.788c-0.352,0-0.693-0.186-0.876-0.516c-0.921-1.662-0.868-4.797-0.209-6.283   c0.223-0.504,0.813-0.732,1.319-0.509c0.505,0.224,0.732,0.814,0.509,1.319c-0.439,0.992-0.455,3.446,0.131,4.504   c0.268,0.482,0.093,1.092-0.391,1.359C17.439,35.748,17.273,35.788,17.109,35.788z"/></g><g><path d="M46.844,35.475c-0.164,0-0.33-0.04-0.484-0.125c-0.482-0.269-0.657-0.877-0.39-1.36c0.587-1.057,0.57-3.511,0.131-4.503   c-0.224-0.505,0.004-1.096,0.509-1.319c0.507-0.227,1.097,0.005,1.319,0.509c0.659,1.487,0.712,4.622-0.209,6.284   C47.536,35.289,47.195,35.475,46.844,35.475z"/></g></svg>