<?xml version="1.0" encoding="UTF-8" standalone="no"?>
<svg
   width="64"
   height="64"
   viewBox="0 0 22.577778 22.577778"
   version="1.1"
   id="svg831"
   inkscape:version="1.1.2 (1:1.1+202202050950+0a00cf5339)"
   sodipodi:docname="21 - Biceps.svg"
   inkscape:export-filename="/media/taufikramadhan/Data/Tr Design Studio/Project Design/TR Creative Design/Icon Design/Project Hiring/Icon Icons/018 - Gym And Fitness/5 - Send/21 - Biceps.png"
   inkscape:export-xdpi="576"
   inkscape:export-ydpi="576"
   xmlns:inkscape="http://www.inkscape.org/namespaces/inkscape"
   xmlns:sodipodi="http://sodipodi.sourceforge.net/DTD/sodipodi-0.dtd"
   xmlns="http://www.w3.org/2000/svg"
   xmlns:svg="http://www.w3.org/2000/svg"
   xmlns:rdf="http://www.w3.org/1999/02/22-rdf-syntax-ns#"
   xmlns:cc="http://creativecommons.org/ns#"
   xmlns:dc="http://purl.org/dc/elements/1.1/">
  <defs
     id="defs825">
    <pattern
       id="EMFhbasepattern"
       patternUnits="userSpaceOnUse"
       width="6"
       height="6"
       x="0"
       y="0" />
    <pattern
       id="EMFhbasepattern-9"
       patternUnits="userSpaceOnUse"
       width="6"
       height="6"
       x="0"
       y="0" />
    <pattern
       id="EMFhbasepattern-0"
       patternUnits="userSpaceOnUse"
       width="6"
       height="6"
       x="0"
       y="0" />
    <pattern
       id="EMFhbasepattern-7"
       patternUnits="userSpaceOnUse"
       width="6"
       height="6"
       x="0"
       y="0" />
    <pattern
       id="EMFhbasepattern-2"
       patternUnits="userSpaceOnUse"
       width="6"
       height="6"
       x="0"
       y="0" />
    <pattern
       id="EMFhbasepattern-98"
       patternUnits="userSpaceOnUse"
       width="6"
       height="6"
       x="0"
       y="0" />
    <pattern
       id="EMFhbasepattern-6"
       patternUnits="userSpaceOnUse"
       width="6"
       height="6"
       x="0"
       y="0" />
    <pattern
       id="EMFhbasepattern-01"
       patternUnits="userSpaceOnUse"
       width="6"
       height="6"
       x="0"
       y="0" />
    <pattern
       id="EMFhbasepattern-07"
       patternUnits="userSpaceOnUse"
       width="6"
       height="6"
       x="0"
       y="0" />
    <pattern
       id="EMFhbasepattern-8"
       patternUnits="userSpaceOnUse"
       width="6"
       height="6"
       x="0"
       y="0" />
    <pattern
       id="EMFhbasepattern-4"
       patternUnits="userSpaceOnUse"
       width="6"
       height="6"
       x="0"
       y="0" />
    <pattern
       id="EMFhbasepattern-40"
       patternUnits="userSpaceOnUse"
       width="6"
       height="6"
       x="0"
       y="0" />
    <pattern
       id="EMFhbasepattern-08"
       patternUnits="userSpaceOnUse"
       width="6"
       height="6"
       x="0"
       y="0" />
    <pattern
       id="EMFhbasepattern-04"
       patternUnits="userSpaceOnUse"
       width="6"
       height="6"
       x="0"
       y="0" />
    <pattern
       id="EMFhbasepattern-014"
       patternUnits="userSpaceOnUse"
       width="6"
       height="6"
       x="0"
       y="0" />
    <pattern
       id="EMFhbasepattern-27"
       patternUnits="userSpaceOnUse"
       width="6"
       height="6"
       x="0"
       y="0" />
    <pattern
       id="EMFhbasepattern-09"
       patternUnits="userSpaceOnUse"
       width="6"
       height="6"
       x="0"
       y="0" />
    <pattern
       id="EMFhbasepattern-5"
       patternUnits="userSpaceOnUse"
       width="6"
       height="6"
       x="0"
       y="0" />
    <pattern
       id="EMFhbasepattern-018"
       patternUnits="userSpaceOnUse"
       width="6"
       height="6"
       x="0"
       y="0" />
  </defs>
  <sodipodi:namedview
     inkscape:lockguides="true"
     id="base"
     pagecolor="var(--cor-12)fff"
     bordercolor="#666666"
     borderopacity="1.0"
     inkscape:pageopacity="0.0"
     inkscape:pageshadow="2"
     inkscape:zoom="4.4249417"
     inkscape:cx="42.37344"
     inkscape:cy="53.78602"
     inkscape:document-units="pt"
     inkscape:current-layer="layer1"
     showgrid="false"
     units="pt"
     inkscape:window-width="1366"
     inkscape:window-height="737"
     inkscape:window-x="0"
     inkscape:window-y="31"
     inkscape:window-maximized="0"
     inkscape:pagecheckerboard="true"
     inkscape:showpageshadow="false"
     inkscape:object-paths="true"
     inkscape:snap-intersection-paths="true"
     inkscape:snap-smooth-nodes="true"
     inkscape:snap-midpoints="true"
     showguides="false"
     inkscape:snap-bbox="true"
     inkscape:bbox-nodes="true"
     inkscape:snap-nodes="false"
     inkscape:snap-global="true"
     inkscape:document-rotation="0">
    <inkscape:grid
       type="xygrid"
       id="grid1378" />
    <sodipodi:guide
       position="0.97013831,21.607643"
       orientation="78.000048,0"
       id="guide1380"
       inkscape:locked="true" />
    <sodipodi:guide
       position="0.97013831,0.97013129"
       orientation="0,78.000005"
       id="guide1382"
       inkscape:locked="true" />
    <sodipodi:guide
       position="21.607639,0.97013129"
       orientation="-78.000048,0"
       id="guide1384"
       inkscape:locked="true" />
    <sodipodi:guide
       position="21.607639,21.607643"
       orientation="0,-78.000005"
       id="guide1386"
       inkscape:locked="true" />
  </sodipodi:namedview>
  <metadata
     id="metadata828">
    <rdf:RDF>
      <cc:Work
         rdf:about="">
        <dc:format>image/svg+xml</dc:format>
        <dc:type
           rdf:resource="http://purl.org/dc/dcmitype/StillImage" />
      </cc:Work>
    </rdf:RDF>
  </metadata>
  <g
     inkscape:label="Icon"
     inkscape:groupmode="layer"
     id="layer1"
     transform="translate(0,-274.42223)">
    <path
       id="path81448"
       style="color:#000000;display:inline;fill:#cecece;stroke-width:1;stroke-linecap:round;stroke-linejoin:round;stroke-miterlimit:10;-inkscape-stroke:none"
       d="m 8.4684785,275.71383 c -1.6562683,0 -2.6481827,0.76641 -3.1721492,1.52855 -0.3635342,0.52877 -0.5202318,1.06111 -0.5825467,1.33803 -0.2305773,0.10896 -0.635949,0.33813 -1.0123052,0.74314 -0.4386567,0.47206 -0.8419603,1.19723 -0.9193315,2.2177 -0.2856252,0.39576 -1.81200654,2.64832 -1.81200654,5.65186 -0.001229,3.25181 1.08820034,5.03797 2.45111754,6.16161 1.9015031,1.60965 4.3795022,1.86899 6.2669292,1.88677 0.4750529,0.11072 0.9915329,0.1749 1.5499899,0.1749 1.539643,0 3.555144,-0.10128 4.936045,-0.97199 0.920484,0.57375 2.24052,1.11738 4.035566,1.27431 0.767288,0.0669 1.397852,-0.57326 1.397852,-1.32698 v -8.30585 c -3e-6,-0.7534 -0.617137,-1.37119 -1.370545,-1.37119 h -0.693089 c -3.034785,0.005 -4.968947,1.63548 -5.708437,2.39845 l -0.169695,-0.25095 c -1.341459,-1.70463 -3.433705,-1.45733 -3.479677,-1.45182 -1.0948385,0.004 -1.9339485,0.34724 -2.5369393,0.73989 -0.098282,-0.51873 -0.2321083,-1.41964 -0.2321083,-2.48687 0,-1.19184 0.5396143,-2.20934 0.8140049,-2.64943 0.2815935,0.12896 0.5928006,0.20982 0.9303844,0.21131 l 1.3985013,0.006 c 0,0.56842 0.462412,1.03344 1.024659,1.03344 h 0.693075 c 0.562247,0 1.024658,-0.46502 1.024658,-1.02726 v -0.801 c 0.03905,-0.0521 0.07423,-0.10682 0.105332,-0.16449 0.186396,-0.34603 0.209915,-0.76091 0.115724,-1.2015 -0.0934,-0.43691 -0.300699,-0.91431 -0.607253,-1.44727 -0.3746,-0.74589 -0.866092,-1.23474 -1.447265,-1.51878 -0.583098,-0.28497 -1.235023,-0.37258 -1.9459406,-0.4057 m -0.031844,0.66641 c 0.6736486,0.0315 1.2317246,0.11713 1.6852246,0.33873 0.453502,0.22164 0.823014,0.5726 1.147539,1.22166 0.214992,0.39565 0.397367,0.82421 0.54809,1.28473 0.07231,0.33824 0.04453,0.57124 -0.04877,0.74444 -0.09329,0.17318 -0.26381,0.31936 -0.579946,0.4304 -0.111861,0.0392 -0.241639,0.0729 -0.387498,0.0995 -0.104564,-1.23882 -0.681372,-2.14685 -0.681372,-2.14685 -0.04722,-0.075 -0.122882,-0.12755 -0.209352,-0.14694 -0.08578,-0.0197 -0.175574,-0.005 -0.250313,0.0417 -0.156323,0.0975 -0.203997,0.30364 -0.105973,0.45966 0,0 0.497697,0.80106 0.584497,1.86141 -0.09634,0.004 -0.196961,0.006 -0.301675,0.006 H 9.7590536 c -0.090725,-1.2578 -0.6586158,-2.18714 -0.6586158,-2.18714 -0.095002,-0.15743 -0.2996558,-0.20753 -0.4570651,-0.11248 -0.1574478,0.095 -0.2081524,0.29964 -0.1131286,0.45706 0,0 0.4714797,0.78917 0.5604409,1.84061 -0.5287271,-0.0293 -1.0416625,-0.38043 -1.4258091,-0.76458 -0.4012918,-0.40129 -0.6410614,-0.80101 -0.6410614,-0.80101 -0.094153,-0.15833 -0.2989983,-0.21033 -0.4570653,-0.11575 -0.1574553,0.095 -0.2081609,0.29964 -0.1131285,0.45706 0,0 0.2784261,0.46502 0.7424871,0.92908 0.1369678,0.13697 0.2924262,0.27636 0.4642169,0.40571 -0.3188771,0.50885 -0.9095791,1.63446 -0.9095791,2.9953 0,1.38539 0.2167819,2.51138 0.3120785,2.94069 -0.411266,0.37523 -0.6092034,0.69373 -0.6092034,0.69373 -0.095013,0.15744 -0.044357,0.36211 0.1131285,0.45706 0.1574498,0.095 0.3621125,0.0444 0.4570653,-0.11311 0,0 0.9102772,-1.57014 3.1955545,-1.57147 0,0 1.791382,-0.21892 2.915986,1.20018 0.78136,1.05464 0.648058,2.62604 0.225606,3.51868 -0.078,0.16557 -0.0077,0.36306 0.15734,0.44211 0.165559,0.0785 0.363457,0.009 0.442762,-0.15669 0.412344,-0.8713 0.605425,-2.16334 0.183996,-3.32038 0.454925,-0.52701 2.268457,-2.37052 5.400911,-2.3757 h 0.691124 c 0.393601,0 0.704777,0.31378 0.704778,0.70738 v 8.30585 c 0,0.39329 -0.298598,0.69648 -0.672919,0.6638 -1.968881,-0.17213 -3.29167,-0.82759 -4.125941,-1.43296 -0.83427,-0.60537 -1.162492,-1.13779 -1.162492,-1.13779 -0.09743,-0.15484 -0.301554,-0.20167 -0.457066,-0.1053 -0.15632,0.0975 -0.203347,0.30365 -0.105319,0.45966 0,0 0.347947,0.5491 1.11503,1.15534 -1.376705,0.61729 -2.762223,0.72523 -4.294982,0.75614 -0.517397,0 -0.994167,-0.0598 -1.4420645,-0.16547 -2.6200889,-0.62738 -3.8041092,-2.77848 -3.8041088,-2.77848 -0.089869,-0.16131 -0.2943687,-0.21829 -0.4551149,-0.12743 -0.1598358,0.0898 -0.2166162,0.29168 -0.1274319,0.45187 0,0 0.751679,1.34142 2.3353879,2.31002 -1.3511991,-0.19042 -2.7543649,-0.62821 -3.8931806,-1.59224 -0.00162,-10e-4 -0.00354,-0.004 -0.0052,-0.005 -1.237174,-1.01845 -2.2118572,-2.5386 -2.2118572,-5.64083 0.042395,-1.96755 0.7028036,-3.55191 1.1963013,-4.46923 0.0568,0.46192 0.113779,0.88901 0.113779,1.62022 -7.19e-4,0.18385 0.1477358,0.33347 0.3315835,0.33418 0.1848642,6.7e-4 0.3349083,-0.14932 0.3341841,-0.33418 0,-0.88731 -0.0831,-1.38226 -0.1449864,-1.91929 -0.1584358,-1.37484 0.2682576,-2.16987 0.7223321,-2.65852 0.4540742,-0.48865 0.9245327,-0.64431 0.9245327,-0.64431 0.1217304,-0.0406 0.2092544,-0.14764 0.2249568,-0.27502 0,0 0.078556,-0.61353 0.5064776,-1.23596 0.4279218,-0.62243 1.1657076,-1.24117 2.6247113,-1.24117 z m 3.1448436,4.87233 c 0,0.20243 -0.155813,0.36149 -0.358241,0.36149 h -0.693075 c -0.202427,0 -0.358889,-0.15906 -0.358889,-0.37092 0.482143,-0.0294 0.892973,-0.0949 1.238562,-0.21617 0.05909,-0.0208 0.112063,-0.0338 0.171643,-0.0683 z m 4.831367,5.20715 c -0.08742,1.9e-4 -0.171259,0.0347 -0.233408,0.0962 -0.130401,0.13007 -0.130401,0.34131 0,0.47138 0,0 1.950027,1.93827 1.295125,4.88532 -0.0387,0.17889 0.07427,0.35547 0.252914,0.39531 0.178294,0.0392 0.354936,-0.0725 0.39595,-0.25032 0.729662,-3.2835 -1.474571,-5.50169 -1.474571,-5.50169 -0.06279,-0.0622 -0.14769,-0.0968 -0.23601,-0.0962 z m -14.5376632,1.38356 c -0.1838478,6.5e-4 -0.3323037,0.15033 -0.3315837,0.33417 0,0 3.93e-4,0.37646 0.093624,0.84262 0.093231,0.46615 0.2704244,1.04542 0.6950252,1.47001 0.130141,0.13084 0.3418779,0.13084 0.4720189,0 0.1308348,-0.13014 0.1308348,-0.34187 0,-0.47201 -0.2676826,-0.26769 -0.4363912,-0.72883 -0.5162307,-1.12803 -0.079839,-0.39921 -0.078669,-0.71259 -0.078669,-0.71259 7.257e-4,-0.18486 -0.1493201,-0.3349 -0.3341847,-0.33417 z m 13.1541152,0 c -0.183849,6.5e-4 -0.332305,0.15033 -0.331584,0.33417 0,0 -0.02292,0.91952 -0.597501,1.49409 -0.130834,0.13014 -0.130834,0.34187 0,0.47201 0.130141,0.13084 0.341878,0.13084 0.472019,0 0.809979,-0.80995 0.788649,-1.9661 0.78865,-1.9661 7.32e-4,-0.18384 -0.147736,-0.33347 -0.331584,-0.33417 z m -8.7265025,2.22163 c -0.066473,-0.0958 -0.1781911,-0.14977 -0.2945244,-0.1424 l 2.7e-6,-1e-5 c -0.1829396,0.0113 -0.3224422,0.1681 -0.3120785,0.35108 4.9e-6,9e-5 0.014916,0.0811 0.014953,0.0813 0.032776,0.0837 0.079418,0.14338 0.132631,0.1918 0.044133,0.0443 0.1058451,0.10065 0.186597,0.1645 0.1615049,0.12782 0.4015908,0.28597 0.7301338,0.43691 0.6570862,0.30189 1.6691326,0.56789 3.0986809,0.47722 0.183251,-0.0126 0.321744,-0.17108 0.309478,-0.35434 -0.0112,-0.18402 -0.169716,-0.32393 -0.353689,-0.31208 -1.3288819,0.0843 -2.2200869,-0.15899 -2.77685,-0.4148 -0.2783812,-0.12789 -0.4733726,-0.26011 -0.5948998,-0.35629 z"
       sodipodi:nodetypes="cscsccccsccscccccccscscssscsscscccccscccccccscccccscccscscccccccccccscscscccccccccccccccscssccsccssscccsccccccccscscccscssccccccccccscccscccscc" />
  </g>
</svg>
