<svg id="visual" viewBox="0 0 900 600" width="900" height="600" xmlns="http://www.w3.org/2000/svg" xmlns:xlink="http://www.w3.org/1999/xlink" version="1.1"><path d="M0 140L13.7 147.8C27.3 155.7 54.7 171.3 82 174C109.3 176.7 136.7 166.3 163.8 162.2C191 158 218 160 245.2 153.2C272.3 146.3 299.7 130.7 327 141C354.3 151.3 381.7 187.7 409 207.5C436.3 227.3 463.7 230.7 491 230.2C518.3 229.7 545.7 225.3 573 213.5C600.3 201.7 627.7 182.3 654.8 172.2C682 162 709 161 736.2 169.5C763.3 178 790.7 196 818 190.8C845.3 185.7 872.7 157.3 886.3 143.2L900 129L900 0L886.3 0C872.7 0 845.3 0 818 0C790.7 0 763.3 0 736.2 0C709 0 682 0 654.8 0C627.7 0 600.3 0 573 0C545.7 0 518.3 0 491 0C463.7 0 436.3 0 409 0C381.7 0 354.3 0 327 0C299.7 0 272.3 0 245.2 0C218 0 191 0 163.8 0C136.7 0 109.3 0 82 0C54.7 0 27.3 0 13.7 0L0 0Z" fill="#0066FF" stroke-linecap="round" stroke-linejoin="miter"></path></svg>