<?xml version="1.0" encoding="UTF-8" standalone="no"?>
<!-- Created with Inkscape (http://www.inkscape.org/) -->

<svg
   width="64pt"
   height="64pt"
   viewBox="0 0 22.577778 22.577778"
   version="1.1"
   id="svg831"
   inkscape:version="1.1.1 (3bf5ae0d25, 2021-09-20)"
   sodipodi:docname="EXPORT.svg"
   inkscape:export-filename="C:\Users\User\Desktop\CARLOS PROJECT\5. MAY 1\Done\FiledLine\14 - Gym Equitment.png"
   inkscape:export-xdpi="576"
   inkscape:export-ydpi="576"
   xmlns:inkscape="http://www.inkscape.org/namespaces/inkscape"
   xmlns:sodipodi="http://sodipodi.sourceforge.net/DTD/sodipodi-0.dtd"
   xmlns="http://www.w3.org/2000/svg"
   xmlns:svg="http://www.w3.org/2000/svg"
   xmlns:rdf="http://www.w3.org/1999/02/22-rdf-syntax-ns#"
   xmlns:cc="http://creativecommons.org/ns#"
   xmlns:dc="http://purl.org/dc/elements/1.1/">
  <defs
     id="defs825">
    <pattern
       id="EMFhbasepattern"
       patternUnits="userSpaceOnUse"
       width="6"
       height="6"
       x="0"
       y="0" />
    <pattern
       id="EMFhbasepattern-9"
       patternUnits="userSpaceOnUse"
       width="6"
       height="6"
       x="0"
       y="0" />
    <pattern
       id="EMFhbasepattern-0"
       patternUnits="userSpaceOnUse"
       width="6"
       height="6"
       x="0"
       y="0" />
    <pattern
       id="EMFhbasepattern-7"
       patternUnits="userSpaceOnUse"
       width="6"
       height="6"
       x="0"
       y="0" />
    <pattern
       id="EMFhbasepattern-2"
       patternUnits="userSpaceOnUse"
       width="6"
       height="6"
       x="0"
       y="0" />
    <pattern
       id="EMFhbasepattern-98"
       patternUnits="userSpaceOnUse"
       width="6"
       height="6"
       x="0"
       y="0" />
    <pattern
       id="EMFhbasepattern-6"
       patternUnits="userSpaceOnUse"
       width="6"
       height="6"
       x="0"
       y="0" />
    <pattern
       id="EMFhbasepattern-01"
       patternUnits="userSpaceOnUse"
       width="6"
       height="6"
       x="0"
       y="0" />
    <pattern
       id="EMFhbasepattern-07"
       patternUnits="userSpaceOnUse"
       width="6"
       height="6"
       x="0"
       y="0" />
    <pattern
       id="EMFhbasepattern-8"
       patternUnits="userSpaceOnUse"
       width="6"
       height="6"
       x="0"
       y="0" />
    <pattern
       id="EMFhbasepattern-4"
       patternUnits="userSpaceOnUse"
       width="6"
       height="6"
       x="0"
       y="0" />
    <pattern
       id="EMFhbasepattern-40"
       patternUnits="userSpaceOnUse"
       width="6"
       height="6"
       x="0"
       y="0" />
    <pattern
       id="EMFhbasepattern-08"
       patternUnits="userSpaceOnUse"
       width="6"
       height="6"
       x="0"
       y="0" />
    <pattern
       id="EMFhbasepattern-04"
       patternUnits="userSpaceOnUse"
       width="6"
       height="6"
       x="0"
       y="0" />
    <pattern
       id="EMFhbasepattern-014"
       patternUnits="userSpaceOnUse"
       width="6"
       height="6"
       x="0"
       y="0" />
    <pattern
       id="EMFhbasepattern-27"
       patternUnits="userSpaceOnUse"
       width="6"
       height="6"
       x="0"
       y="0" />
    <pattern
       id="EMFhbasepattern-09"
       patternUnits="userSpaceOnUse"
       width="6"
       height="6"
       x="0"
       y="0" />
    <pattern
       id="EMFhbasepattern-5"
       patternUnits="userSpaceOnUse"
       width="6"
       height="6"
       x="0"
       y="0" />
    <pattern
       id="EMFhbasepattern-018"
       patternUnits="userSpaceOnUse"
       width="6"
       height="6"
       x="0"
       y="0" />
  </defs>
  <sodipodi:namedview
     id="base"
     pagecolor="#ffffff"
     bordercolor="#666666"
     borderopacity="1.0"
     inkscape:pageopacity="0.0"
     inkscape:pageshadow="2"
     inkscape:zoom="9.1757813"
     inkscape:cx="31.822903"
     inkscape:cy="43.320562"
     inkscape:document-units="pt"
     inkscape:current-layer="layer1"
     showgrid="false"
     units="pt"
     inkscape:window-width="1920"
     inkscape:window-height="1001"
     inkscape:window-x="-9"
     inkscape:window-y="-9"
     inkscape:window-maximized="1"
     inkscape:pagecheckerboard="true"
     inkscape:showpageshadow="false"
     inkscape:object-paths="true"
     inkscape:snap-intersection-paths="true"
     inkscape:snap-smooth-nodes="true"
     inkscape:snap-midpoints="true"
     showguides="true"
     inkscape:snap-bbox="true"
     inkscape:bbox-nodes="true"
     inkscape:snap-nodes="false"
     inkscape:snap-global="true">
    <inkscape:grid
       type="xygrid"
       id="grid1378" />
    <sodipodi:guide
       position="0.97013831,21.607643"
       orientation="78.000048,0"
       id="guide1380"
       inkscape:locked="false" />
    <sodipodi:guide
       position="0.97013831,0.97013129"
       orientation="0,78.000005"
       id="guide1382"
       inkscape:locked="false" />
    <sodipodi:guide
       position="21.607639,0.97013129"
       orientation="-78.000048,0"
       id="guide1384"
       inkscape:locked="false" />
    <sodipodi:guide
       position="21.607639,21.607643"
       orientation="0,-78.000005"
       id="guide1386"
       inkscape:locked="false" />
  </sodipodi:namedview>
  <metadata
     id="metadata828">
    <rdf:RDF>
      <cc:Work
         rdf:about="">
        <dc:format>image/svg+xml</dc:format>
        <dc:type
           rdf:resource="http://purl.org/dc/dcmitype/StillImage" />
      </cc:Work>
    </rdf:RDF>
  </metadata>
  <g
     inkscape:label="Icon"
     inkscape:groupmode="layer"
     id="layer1"
     transform="translate(0,-274.42223)">
    <g
       id="g12057"
       style="display:inline;stroke-width:0.796346"
       transform="matrix(1.2557355,0,0,1.2557355,38.959742,-149.70437)">
      <g
         id="g417990"
         style="display:inline;stroke-width:0.796346">
        <path
           style="color:#000000;fill:#c8dae5;stroke-width:0.796346;stroke-linecap:round;stroke-linejoin:round;-inkscape-stroke:none"
           d="m -28.277344,352.38477 a 0.26460996,0.26460996 0 0 0 -0.328125,0.18554 l -0.175781,0.65235 c -0.109713,0.40945 0.16331,0.82016 0.572266,0.92968 0.408904,0.10957 0.851223,-0.10813 0.960937,-0.51757 l 0.171875,-0.63868 a 0.26460996,0.26460996 0 0 0 -0.183594,-0.32422 z"
           id="path589376" />
        <path
           id="path614231"
           style="color:#000000;fill:#b0c3d3;fill-opacity:1;stroke-width:0.796346;stroke-linecap:round;stroke-linejoin:round;-inkscape-stroke:none"
           d="m -27.605552,352.99601 -0.171566,0.63872 c -0.06625,0.24726 -0.253899,0.42474 -0.48214,0.5023 0.01655,0.006 0.03309,0.0109 0.05013,0.0155 0.408905,0.10957 0.851469,-0.10836 0.961181,-0.5178 l 0.171566,-0.63872 z"
           sodipodi:nodetypes="ccccccc" />
        <path
           style="color:#000000;fill:#394d5c;stroke-width:0.796346;stroke-linecap:round;stroke-linejoin:round;-inkscape-stroke:none"
           d="m -28.417969,351.35742 a 0.26460996,0.26460996 0 0 0 -0.324218,0.1875 l -0.125,0.46875 c -0.109704,0.40943 0.163383,0.82012 0.572265,0.92969 l 0.767578,0.20508 c 0.408854,0.1095 0.851232,-0.11009 0.960938,-0.51953 l 0.125,-0.46875 a 0.26460996,0.26460996 0 0 0 -0.1875,-0.32227 z"
           id="path589184" />
        <path
           style="color:#000000;fill:#c8dae5;stroke-width:0.796346;stroke-linecap:round;stroke-linejoin:round;-inkscape-stroke:none"
           d="m -24.236328,339.33008 c -0.408899,-0.10957 -0.851223,0.11009 -0.960938,0.51953 l -0.148437,0.55273 a 0.26460996,0.26460996 0 0 0 0.183594,0.32422 l 1.017578,0.28711 a 0.26460996,0.26460996 0 0 0 0.328125,-0.18555 l 0.152344,-0.56835 c 0.109713,-0.40946 -0.163317,-0.82017 -0.572266,-0.92969 z"
           id="path586648" />
        <path
           style="color:#000000;fill:#c8dae5;stroke-width:0.796346;stroke-linecap:round;stroke-linejoin:round;-inkscape-stroke:none"
           d="m -26.322266,345.07031 c -0.112371,-0.0302 -0.231269,0.0166 -0.292968,0.11524 l -0.492188,0.79201 c -0.01396,0.0224 -0.240228,0.89847 -0.240228,0.89847 -0.0067,0.0261 0.03126,0.93262 0.03126,0.93262 0.0049,0.11525 0.08395,0.21403 0.195312,0.24414 l 1.021485,0.27344 c 0.11193,0.0306 0.230709,-0.0154 0.292968,-0.11328 l 0.492188,-0.79201 c 0.01397,-0.0224 0.240228,-0.89942 0.240228,-0.89942 0.0065,-0.0255 -0.0293,-0.93163 -0.0293,-0.93163 -0.0052,-0.1158 -0.08513,-0.21475 -0.197265,-0.24414 z"
           id="path587608"
           sodipodi:nodetypes="ccccccccccccc" />
        <path
           style="color:#000000;fill:#b0c3d3;stroke-width:0.796346;stroke-linecap:round;stroke-linejoin:round;-inkscape-stroke:none"
           d="m -26.855469,343.99219 a 0.26460996,0.26460996 0 0 0 -0.324218,0.1875 l -0.0957,0.36133 c -0.112651,0.42041 0.140087,0.86005 0.560547,0.97265 l 1.533203,0.41211 c 0.420409,0.11265 0.860006,-0.14209 0.972657,-0.5625 l 0.0957,-0.36133 a 0.26460996,0.26460996 0 0 0 -0.185547,-0.32422 z"
           id="path587416" />
        <path
           style="color:#000000;fill:#b0c3d3;stroke-width:0.796346;stroke-linecap:round;stroke-linejoin:round;-inkscape-stroke:none"
           d="m -27.240234,347.47266 c -0.420389,-0.11259 -0.860002,0.14209 -0.972657,0.5625 l -0.0957,0.36132 a 0.26460996,0.26460996 0 0 0 0.185547,0.32422 l 2.556641,0.68555 a 0.26460996,0.26460996 0 0 0 0.324219,-0.1875 l 0.09766,-0.36328 c 0.11265,-0.42041 -0.142092,-0.85806 -0.5625,-0.9707 z"
           id="path587800" />
        <path
           style="color:#000000;fill:#a7e3fa;stroke-width:0.796346;stroke-linecap:round;stroke-linejoin:round;-inkscape-stroke:none"
           d="m -22.021484,343.30273 a 0.26460996,0.26460996 0 0 0 -0.263672,0.26368 v 9.25976 c 0,0.58137 0.477228,1.0586 1.058594,1.0586 h 4.232421 c 0.581366,0 1.058594,-0.47723 1.058594,-1.0586 v -9.25976 a 0.26460996,0.26460996 0 0 0 -0.263672,-0.26368 z"
           id="path585600" />
        <path
           style="color:#000000;fill:#a7e3fa;stroke-width:0.796346;stroke-linecap:round;stroke-linejoin:round;-inkscape-stroke:none"
           d="m -16.597656,339.70898 c -0.376936,-0.21763 -0.868318,-0.0859 -1.085938,0.29102 l -0.5,0.86719 a 0.26460996,0.26460996 0 0 0 0.08203,0.35156 l 1.103515,0.73437 a 0.26460996,0.26460996 0 0 0 0.376953,-0.0879 l 0.542969,-0.93945 c 0.217627,-0.37694 0.08597,-0.86639 -0.291016,-1.08398 z"
           id="path585408" />
        <path
           id="path593237"
           style="color:#000000;fill:#87d1ee;fill-opacity:1;stroke-width:0.796346;stroke-linecap:round;stroke-linejoin:round;-inkscape-stroke:none"
           d="m -22.021396,343.30259 a 0.26460996,0.26460996 0 0 0 -0.263548,0.26407 v 0.79427 h 5.027599 a 0.26460996,0.26460996 0 0 1 0.26355,0.26407 v 9.25938 c 0,1.7e-4 0,3.4e-4 0,5.2e-4 0.581131,-2.9e-4 1.058333,-0.47766 1.058333,-1.05886 v -9.25938 a 0.26460996,0.26460996 0 0 0 -0.263549,-0.26407 z" />
        <path
           id="path585792"
           style="color:#000000;fill:#2587b5;stroke-width:3.00981;stroke-linecap:round;stroke-linejoin:round;-inkscape-stroke:none"
           d="m -84.226562,243.00391 v 5.99414 h 16.416015 c 0.488727,1.65736 1.771521,3.0039 3.580078,3.0039 h 3.00586 c 0.329907,0 0.668276,0.0782 0.996093,0.2168 1.066342,0.45072 2,1.5532 2,2.78125 v 10.99805 c 0,1.22805 -0.933662,2.33436 -2,2.78711 -0.327816,0.13918 -0.66619,0.21679 -0.996093,0.21679 h -23.001953 v 5.99414 c 7.506978,0 16.639239,-7e-5 23.998046,0 4.406347,0 8.001941,-3.58777 8.001954,-7.99414 v -17 c 0,-3.85413 -3.151713,-6.99804 -7.00586,-6.99804 z"
           transform="matrix(0.26458334,0,0,0.26458334,0,280.06666)"
           sodipodi:nodetypes="cccsscssssccssscc" />
        <path
           style="color:#000000;fill:#394d5c;stroke-width:0.796346;stroke-linecap:round;stroke-linejoin:round;-inkscape-stroke:none"
           d="m -28.679687,349.78125 c -0.408862,-0.1095 -0.851228,0.10812 -0.960938,0.51758 l -0.0625,0.23437 c -0.144381,0.53883 0.215582,1.08504 0.765625,1.23242 l 2.554688,0.68555 c 0.550052,0.14739 1.134918,-0.14672 1.279296,-0.68555 l 0.0625,-0.23242 c 0.109716,-0.40945 -0.163366,-0.82012 -0.572265,-0.92968 z"
           id="path588992" />
        <path
           style="color:#000000;fill:#394d5c;stroke-width:0.796346;stroke-linecap:round;stroke-linejoin:round;-inkscape-stroke:none"
           d="m -29.134766,347.90234 c -0.408861,-0.10949 -0.851227,0.10812 -0.960937,0.51758 l -0.125,0.46875 c -0.14438,0.53883 0.215582,1.08504 0.765625,1.23242 l 4.34375,1.16407 c 0.550049,0.14738 1.13492,-0.14672 1.279297,-0.68555 l 0.125,-0.4668 c 0.109716,-0.40945 -0.163367,-0.82012 -0.572266,-0.92969 z"
           id="path587992" />
        <path
           style="color:#000000;fill:#394d5c;stroke-width:0.796346;stroke-linecap:round;stroke-linejoin:round;-inkscape-stroke:none"
           d="m -27.310547,342.11328 c -0.550043,-0.14738 -1.134917,0.14477 -1.279297,0.68359 l -0.125,0.46875 c -0.109716,0.40946 0.163312,0.82017 0.572266,0.92969 l 4.855469,1.30078 c 0.408898,0.10957 0.851223,-0.10813 0.960937,-0.51757 l 0.126953,-0.46875 c 0.144378,-0.53883 -0.215577,-1.08504 -0.765625,-1.23243 z"
           id="path587224" />
        <path
           style="color:#000000;fill:#394d5c;stroke-width:0.796346;stroke-linecap:round;stroke-linejoin:round;-inkscape-stroke:none"
           d="m -26.039062,340.94727 c -0.550048,-0.14739 -1.134918,0.14476 -1.279297,0.68359 l -0.0625,0.23437 c -0.109713,0.40946 0.163316,0.82017 0.572265,0.92969 l 3.066407,0.82227 c 0.408898,0.10956 0.851223,-0.11009 0.960937,-0.51953 l 0.0625,-0.23438 c 0.144376,-0.53883 -0.215576,-1.08308 -0.765625,-1.23047 z"
           id="path587032" />
        <path
           style="color:#000000;fill:#394d5c;stroke-width:0.796346;stroke-linecap:round;stroke-linejoin:round;-inkscape-stroke:none"
           d="m -24.894531,340.25 c -0.408889,-0.10957 -0.84928,0.10814 -0.958985,0.51758 l -0.126953,0.46875 a 0.26460996,0.26460996 0 0 0 0.1875,0.32422 l 1.789063,0.48047 a 0.26460996,0.26460996 0 0 0 0.324219,-0.1875 l 0.125,-0.46875 c 0.109708,-0.40944 -0.163327,-0.82017 -0.572266,-0.92969 z"
           id="path586840" />
        <path
           style="color:#000000;fill:#4377d1;stroke-width:0.796346;stroke-linecap:round;stroke-linejoin:round;-inkscape-stroke:none"
           d="m -19.111328,347.00586 a 0.26460996,0.26460996 0 0 0 -0.1875,0.0801 c 0,0 -0.241749,0.24432 -0.484375,0.55859 -0.242626,0.31427 -0.517577,0.66662 -0.517578,1.08203 -5e-6,0.65443 0.535018,1.18946 1.189453,1.18946 0.654434,0 1.191411,-0.53503 1.191406,-1.18946 -1e-6,-0.41541 -0.274952,-0.76776 -0.517578,-1.08203 -0.242626,-0.31427 -0.484375,-0.55859 -0.484375,-0.55859 a 0.26460996,0.26460996 0 0 0 -0.189453,-0.0801 z"
           id="path585984" />
        <path
           style="color:#000000;fill:#2587b5;stroke-width:0.796346;stroke-linecap:round;stroke-linejoin:round;-inkscape-stroke:none"
           d="m -19.111328,340.52344 c -1.712545,0 -3.154839,1.19021 -3.294922,3.00781 a 0.26460996,0.26460996 0 0 0 0.263672,0.2832 h 6.064453 a 0.26460996,0.26460996 0 0 0 0.263672,-0.2832 c -0.140084,-1.8176 -1.58433,-3.00781 -3.296875,-3.00781 z"
           id="path585216" />
      </g>
      <path
         id="path83468"
         style="color:#000000;fill:#000000;stroke-width:3.00981;stroke-linecap:round;stroke-linejoin:round;-inkscape-stroke:none"
         d="m -95.234375,225.95117 -0.400391,1.49414 c -0.977287,0.23822 -1.804626,0.94657 -2.080078,1.97461 l -0.21875,0.8086 -0.482422,-0.12891 c -2.078924,-0.55707 -4.288304,0.54746 -4.833984,2.58398 l -0.23633,0.88672 c -0.0774,0.28885 -0.10522,0.57764 -0.0879,0.85938 -1.96999,-0.3505 -3.96759,0.73881 -4.48242,2.66015 l -0.47266,1.77149 c -0.41467,1.54756 0.61841,3.10169 2.16407,3.51562 l 3.38281,0.90625 -0.10547,0.40039 c -0.39483,1.47349 0.39863,3.00767 1.7832,3.5625 l -1.14844,1.86524 c -0.0525,0.0848 -0.90722,3.3955 -0.90722,3.3955 -0.0251,0.0988 0.0654,2.18653 0.0654,2.18653 -1.47928,-0.21538 -2.94045,0.71941 -3.33594,2.19531 l -0.10742,0.40235 -3.37695,-0.9043 c -1.54531,-0.41382 -3.21816,0.40946 -3.63282,1.95703 l -0.47265,1.77148 c -0.5146,1.92051 0.66723,3.86432 2.54687,4.54688 -0.15471,0.23399 -0.27656,0.496 -0.35351,0.7832 l -0.23633,0.88477 c -0.54569,2.03652 0.81563,4.10117 2.89453,4.6582 l 0.48047,0.12891 -0.21485,0.80859 c -0.27514,1.02689 0.0862,2.0568 0.8125,2.75391 l -0.48828,1.81445 c -0.41466,1.54753 0.61645,3.10169 2.16211,3.51563 1.54547,0.41412 3.21815,-0.40955 3.63281,-1.95704 l 0.49024,-1.82226 c 0.97937,-0.24046 1.8105,-0.95056 2.08594,-1.97852 l 0.21289,-0.80078 0.480466,0.12891 c 2.078937,0.55706 4.290257,-0.55528 4.835938,-2.5918 l 0.236328,-0.8789 c 0.0774,-0.28884 0.103273,-0.57765 0.08594,-0.85938 1.970595,0.35076 3.96744,-0.746 4.482422,-2.66797 l 0.472657,-1.76562 c 0.414674,-1.54753 -0.616665,-3.09955 -2.16211,-3.51368 l -3.380859,-0.90625 0.109375,-0.4082 c 0.39503,-1.47425 -0.404327,-3.00336 -1.791016,-3.55664 l 1.149414,-1.86524 c 0.05316,-0.0847 0.908205,-3.39843 0.908205,-3.39843 0.02455,-0.0969 -0.06152,-2.18164 -0.06152,-2.18164 1.477558,0.21259 2.937019,-0.72114 3.332031,-2.19531 l 0.107422,-0.40235 3.376953,0.9043 c 1.545441,0.41412 3.216192,-0.40954 3.63086,-1.95703 l 0.480468,-1.77149 c 0.515135,-1.92252 -0.66963,-3.87013 -2.552734,-4.55078 0.155162,-0.23477 0.276403,-0.49933 0.353516,-0.78711 l 0.236328,-0.88476 c 0.545673,-2.03653 -0.815606,-4.09333 -2.894532,-4.65039 l -0.480468,-0.12891 0.214843,-0.80859 c 0.275412,-1.02787 -0.08684,-2.05873 -0.814453,-2.75586 l 0.400391,-1.4961 c 0.414663,-1.54756 -0.616475,-3.09973 -2.162109,-3.51367 -1.70395,-0.40626 -3.226842,0.44772 -3.632831,1.96289 z m 28.398437,0.56836 -1.474609,2.55859 c -1.237478,-0.37975 -2.557643,-0.58007 -3.921875,-0.58007 -5.589585,0 -10.431418,3.32698 -11.972656,8.68945 -0.149804,0.52769 0.153453,1.07757 0.679687,1.23242 0.532512,0.15425 1.088874,-0.15416 1.240235,-0.6875 1.298271,-4.5171 5.237004,-7.23437 10.052734,-7.23437 5.189658,0 9.445614,3.75628 10.347656,8.50401 h -19.375 c -0.549955,0.002 -0.994964,0.44798 -0.996093,0.99794 -0.0022,0.55229 0.443805,1.00176 0.996093,1.00391 h 19.03125 v 2 h -3.027343 c -0.552285,-0.002 -1.00175,0.44381 -1.003907,0.99609 0.0022,0.55228 0.451622,0.99825 1.003907,0.99609 h 4.03125 1.992187 c 2.773262,0 5.005859,2.2326 5.00586,5.00586 v 17 c -8e-6,3.32546 -2.676461,6.00196 -6.001954,6.00196 -7.332058,-8e-5 -14.66584,-1e-5 -21.998046,0 v -2 h 21.001953 c 2.596939,0 4.996093,-2.19318 4.996093,-5.00586 V 255 c 0,-2.44725 -1.81722,-4.41952 -4,-4.89062 v -1.11133 c -0.0021,-0.54924 -0.446853,-0.99396 -0.996093,-0.9961 -0.552289,-0.002 -1.001757,0.44381 -1.003907,0.9961 v 20.0039 h -19.998046 v -20.0039 h 14.416015 c 0.488727,1.65736 1.771521,3.0039 3.580078,3.0039 0.555337,0.002 1.006076,-0.44856 1.003907,-1.0039 -0.0022,-0.55229 -0.451618,-0.99826 -1.003907,-0.9961 -1.116415,0 -2,-0.88356 -2,-2 0.0021,-0.55226 -0.443833,-1.00169 -0.996093,-1.0039 h -16.003907 c -0.56608,0 -0.996104,0.50237 -0.996104,1.00399 v 26.99414 c 0,2.19731 1.802711,4.00196 4,4.00196 h 15.996093 c 2.197289,0 4.001953,-1.80465 4.001953,-4.00196 4.406347,0 8.001942,-3.58777 8.001954,-7.99414 v -17 c 0,-3.85413 -3.151713,-6.99804 -7.00586,-6.99804 h -0.996094 v -2.15625 c 0.372038,0 0.457055,-0.62283 0.457055,-0.98255 -0.209345,-2.71625 -1.188702,-5.06097 -2.697266,-6.90429 l 1.701172,-2.94141 c 0.822527,-1.42465 0.325219,-3.27527 -1.09961,-4.09765 l -0.863281,-0.50196 c -1.500035,-0.71788 -3.144284,-0.48931 -4.105481,1.09964 z m -25.283203,-0.59762 c 0.58822,0.1576 0.855557,0.65397 0.746094,1.0625 l -0.298828,1.12695 -1.929687,-0.51563 0.302734,-1.12695 c 0.140504,-0.52437 0.705147,-0.67402 1.179687,-0.54687 z m 28.384766,1.22457 0.863281,0.50196 c 0.488379,0.28195 0.651192,0.87864 0.369141,1.36718 l -1.419922,2.46094 c -0.760644,-0.65123 -1.603399,-1.20484 -2.509766,-1.65234 l 1.330079,-2.3086 c 0.337013,-0.58372 0.909536,-0.63337 1.367187,-0.36914 z m -30.871094,2.25199 2.900391,0.77539 c 0.588189,0.1576 0.861397,0.65404 0.751953,1.0625 l -0.21875,0.80859 -4.830078,-1.29687 0.214844,-0.80274 c 0.152294,-0.56837 0.73426,-0.66675 1.18164,-0.54687 z m 3.941398,8.47471 c -0.532255,-0.1445 -1.081019,0.1692 -1.226563,0.70117 -0.142731,0.53399 0.174825,1.0825 0.708984,1.22461 1.291724,0.35001 2.568116,0.69208 3.861331,1.04121 1.121899,0.30048 1.724881,1.30944 1.484374,2.20704 l -0.472656,1.77343 c -0.109493,0.40853 -0.601037,0.70257 -1.189453,0.54492 -6.217793,-1.67018 -12.916416,-3.46466 -18.351686,-4.9242 -0.5882,-0.15761 -0.85359,-0.65405 -0.74414,-1.0625 l 0.47266,-1.77149 c 0.24049,-0.89752 1.26097,-1.4666 2.38281,-1.16601 l 8.697262,2.32421 c 0.533992,0.14273 1.082498,-0.17482 1.22461,-0.70898 0.142731,-0.53399 -0.174826,-1.0825 -0.708985,-1.22461 l -6.357417,-1.69922 c -0.53485,-0.17915 -0.77453,-0.65644 -0.66992,-1.04687 l 0.23632,-0.88477 c 0.3287,-1.22672 1.318686,-1.45359 2.384899,-1.1679 3.217793,0.86607 6.441197,1.72374 9.65429,2.58415 1.121904,0.30047 1.724882,1.30943 1.484375,2.20703 l -0.236328,0.88672 c -0.109455,0.40853 -0.599084,0.70452 -1.1875,0.54687 z m 9.404305,5.13073 c -0.549236,0.002 -0.993948,0.44685 -0.996093,0.99609 0.0021,0.54924 0.446857,0.99395 0.996093,0.99609 h 12.001954 c 0.549998,-0.001 0.995895,-0.44609 0.998046,-0.99609 -0.0022,-0.55 -0.448048,-0.99502 -0.998046,-0.99609 z m -19.792964,0.79687 7.728511,2.07031 -0.107422,0.40235 c -0.146003,0.54489 -0.681656,0.85499 -1.226562,0.70898 l -0.929688,-0.25 c -0.01553,-0.004 -0.03115,-0.008 -0.04687,-0.0117 l -4.818349,-1.29687 c -0.54472,-0.14589 -0.85498,-0.67194 -0.70899,-1.2168 z m 1.759761,4.00977 2.441407,0.65429 0.09766,2.48243 -0.753906,2.81835 -1.328126,2.10547 -2.443366,-0.65625 -0.0957,-2.48242 0.75977,-2.82031 z m 39.064453,4.4082 c 1.066342,0.45072 2,1.5532 2,2.78125 v 10.99805 c 0,1.22805 -0.933662,2.33436 -2,2.78711 z m -12.003906,0.7793 c -0.267287,0.002 -0.522607,0.11113 -0.708984,0.30273 0,0 -0.913067,0.92354 -1.830078,2.11133 -0.917012,1.18779 -1.955075,2.51979 -1.955078,4.08984 -1.9e-5,2.47344 2.020685,4.4961 4.49414,4.4961 2.473451,0 4.503925,-2.02266 4.503906,-4.4961 -3e-6,-1.57005 -1.040019,-2.90205 -1.957031,-4.08984 -0.917012,-1.18779 -1.830078,-2.11133 -1.830078,-2.11133 -0.188272,-0.19353 -0.446796,-0.30272 -0.716797,-0.30273 z m 0.0078,2.5332 c 0.322318,0.35301 0.476836,0.49049 0.953125,1.10742 0.832985,1.07894 1.542968,2.50034 1.542968,2.86328 1.2e-5,1.39257 -1.111347,2.4961 -2.503906,2.4961 -1.392563,0 -2.494152,-1.10353 -2.49414,-2.4961 0,-0.36283 0.709979,-1.78434 1.542968,-2.86328 0.477861,-0.61897 0.636633,-0.75445 0.958985,-1.10742 z m -31.248048,1.16601 c 2.17736,0.57953 3.765843,1.00822 5.794909,1.5493 0.544905,0.14589 0.854987,0.68167 0.708984,1.22657 l -0.109375,0.40625 -7.728518,-2.07032 0.10937,-0.40234 c 0.15932,-0.59457 0.65362,-0.86246 1.22463,-0.70946 z m -7.16015,1.61717 c 6.21692,1.6701 12.915738,3.46086 18.351561,4.91664 0.588416,0.15761 0.855564,0.65397 0.746094,1.0625 l -0.472656,1.77148 c -0.240492,0.8976 -1.262866,1.47442 -2.384766,1.17383 l -9.654303,-2.58398 c -0.53225,-0.1445 -1.08102,0.1692 -1.22656,0.70117 -0.1445,0.53225 0.1692,1.08102 0.70117,1.22656 l 7.281255,1.95117 c 0.565815,0.16687 0.820335,0.65177 0.712891,1.05274 l -0.236328,0.88476 c -0.240491,0.89753 -1.260928,1.47445 -2.382813,1.17383 -3.218845,-0.86629 -6.444295,-1.7218 -9.656245,-2.58223 -1.12184,-0.30047 -1.72487,-1.31732 -1.48437,-2.21484 l 0.24414,-0.87891 c 0.17844,-0.66596 0.78713,-0.65601 1.21684,-0.54087 l 0.44531,0.11915 c 0.5334,0.14286 1.08164,-0.17367 1.22461,-0.70704 0.14398,-0.53463 -0.17385,-1.08448 -0.70899,-1.22656 l -2.89257,-0.77539 c -1.12185,-0.30047 -1.72487,-1.30951 -1.48438,-2.20703 l 0.47852,-1.77148 c 0.17081,-0.63749 0.68176,-0.67943 1.18159,-0.5455 z m 3.67773,13.32229 4.82813,1.29492 -0.21485,0.80274 c -0.10945,0.40852 -0.59313,0.70448 -1.18164,0.54687 l -2.90039,-0.77539 c -0.56941,-0.15257 -0.8727,-0.59009 -0.74611,-1.06255 z m 24.728515,3.35937 c 6.665587,0 13.332336,-4e-5 19.998046,0 0,1.11644 -0.885533,2.00196 -2.001953,2.00196 h -15.996093 c -1.11642,0 -2,-0.88552 -2,-2.00196 z m -24.230465,0.57227 1.93164,0.51758 -0.38672,1.44922 c -0.10949,0.40853 -0.59129,0.70452 -1.17969,0.54687 -0.5882,-0.15761 -0.86337,-0.65401 -0.7539,-1.0625 z"
         transform="matrix(0.26458334,0,0,0.26458334,0,280.06666)"
         sodipodi:nodetypes="cccccccccccccccccccscccccccccccccccccccccccscccccccccccccccccccccsccccccccccccccssscccsssccsccccccscccccssscsssccccccccccccccccccccccccccccccccccccccccccccccccccccccccccccccccccccccccccccccsccccsssssccccssssccccccccccccccccccccccccccccccccccccccccssccccsccc" />
    </g>
  </g>
</svg>
